# xmcd
#
# Track frame offsets: 
#        150
#        15907
#        58645
#        83342
#        103965
#        123767
#        152560
#        198792
#        222685
#        272832
#
# Disc length: 3899 seconds
#
# Revision: 5
# Processed by: cddbd v1.5.2PL0 Copyright (c) Steve Scherf et al.
# Submitted via: ExactAudioCopy v1.0b3
#
DISCID=7c0f390a
DTITLE=Albert King - Chicago 1978
DYEAR=1994
DGENRE=Blues
TTITLE0=King's Bounce (Instrumental)
TTITLE1=Stormy Monday Blues
TTITLE2=Born Under A Bad Sign
TTITLE3=The Very Thought Of You
TTITLE4=Your'e My Woman, I'm Your Mate
TTITLE5=Tired As A Man Can Be
TTITLE6=Blues At Sunrise
TTITLE7=Feel Like Breakin' Up Somebody's Home
TTITLE8=Please Come Back To Me
TTITLE9=I'll Play The Blues For You
EXTD=YEAR: 2001
EXTT0=
EXTT1=
EXTT2=
EXTT3=
EXTT4=
EXTT5=
EXTT6=
EXTT7=
EXTT8=
EXTT9=
PLAYORDER=
